<svg xmlns="http://www.w3.org/2000/svg" viewBox="0 0 298.20001220703125 66.41999816894531" preserveAspectRatio="xMidYMid meet"><g id="fc69955e-b758-4926-9f8e-812314c52e05" data-name="Layer 2"><g id="18977ae0-f9d9-4939-b5da-410130f3a8f2" data-name="Слой 1"><path d="M0,3.93H41.42v7.14H8.21V30.53H34.64v7.14H8.21V58.2H42.13v7.14H0Z"></path><path d="M54.89,0h7.86V65.34H54.89Z"></path><path d="M95.15,20.71c11.42,0,19.28,7.68,19.28,20.71v3.21H82.65c.36,9.11,5.27,15,12.86,15,6.42,0,9.81-3.57,10.71-7.5h7.85c-1.16,7.77-8.39,14.29-18.56,14.29-13.57,0-21.07-8.93-21.07-22.86C74.44,30,83.37,20.71,95.15,20.71Zm-12.05,18h23.3c-.72-7.85-4.74-11.25-11.25-11.25C89.26,27.49,84.53,31.69,83.1,38.74Z"></path><path d="M144.33,20.71c11.24,0,17.76,6.7,18.92,15.71H155.4c-.9-5-4.29-8.93-11.07-8.93-7.15,0-12.5,6.43-12.5,16.07s5.35,16.07,12.5,16.07c6.78,0,10.17-3.93,11.07-8.93h7.85c-1.16,9-7.68,15.72-18.92,15.72-12.86,0-20.71-8.93-20.71-22.86S132.54,20.71,144.33,20.71Z"></path><path d="M176,28.21H167.8V21.78H176V8.57h7.86V21.78h11.42v6.43H183.87V52.13c0,4.64,1.78,6.43,6.06,6.43h5.36v6.78h-6.43Q176,65.34,176,52.49Z"></path><path d="M205.55,21.78h7.5v6.34h.27a12,12,0,0,1,11.51-7.41,10.22,10.22,0,0,1,6.07,1.78l-2.5,7.15a11.64,11.64,0,0,0-5.35-1.43c-6.52,0-9.64,6.78-9.64,14.37V65.34h-7.86Z"></path><path d="M238.66,0h8.57V8.93h-8.57ZM239,21.78h7.86V65.34H239Z"></path><path d="M279.28,20.71c11.25,0,17.76,6.7,18.92,15.71h-7.85c-.9-5-4.29-8.93-11.07-8.93-7.14,0-12.5,6.43-12.5,16.07s5.36,16.07,12.5,16.07c6.78,0,10.17-3.93,11.07-8.93h7.85c-1.16,9-7.67,15.72-18.92,15.72-12.86,0-20.71-8.93-20.71-22.86S267.49,20.71,279.28,20.71Z"></path></g></g></svg>
